<svg width="26" height="24" viewBox="0 0 26 24" fill="none" xmlns="http://www.w3.org/2000/svg">
<path d="M17.5479 7.26651C18.2473 6.41162 18.1213 5.15157 17.2664 4.45212C16.4116 3.75266 15.1515 3.87866 14.4521 4.73355L6.66615 14.2497L4.19997 12.4C3.31631 11.7373 2.06271 11.9164 1.39997 12.8C0.737228 13.6837 0.916315 14.9373 1.79997 15.6L5.03306 18.0248C6.31913 18.9894 8.13694 18.7688 9.15493 17.5246L17.5479 7.26651Z" stroke="black" stroke-width="2" stroke-linecap="round"/>
<mask id="path-2-outside-1_46_410" maskUnits="userSpaceOnUse" x="8.86914" y="3" width="18" height="17" fill="black">
<rect fill="white" x="8.86914" y="3" width="18" height="17"/>
<path fill-rule="evenodd" clip-rule="evenodd" d="M11.8691 16.5761L12.6028 17.163C13.4586 17.8477 14.7061 17.716 15.4001 16.8678L23.7738 6.63327C24.1235 6.20582 24.0605 5.5758 23.633 5.22607C23.2056 4.87635 22.5756 4.93935 22.2259 5.36679L13.8522 15.6013L13.1357 15.0281L11.8691 16.5761Z"/>
</mask>
<path d="M12.6028 17.163L11.3534 18.7248L11.3534 18.7248L12.6028 17.163ZM11.8691 16.5761L10.3212 15.3096L9.04076 16.8747L10.6197 18.1379L11.8691 16.5761ZM15.4001 16.8678L13.8522 15.6013H13.8522L15.4001 16.8678ZM23.7738 6.63327L22.2259 5.36679V5.36679L23.7738 6.63327ZM23.633 5.22607L22.3666 6.77399H22.3666L23.633 5.22607ZM22.2259 5.36679L20.6779 4.10032L22.2259 5.36679ZM13.8522 15.6013L12.6028 17.163L14.1475 18.3988L15.4001 16.8678L13.8522 15.6013ZM13.1357 15.0281L14.3851 13.4664L12.8404 12.2306L11.5878 13.7616L13.1357 15.0281ZM13.8522 15.6013L13.1185 15.0144L10.6197 18.1379L11.3534 18.7248L13.8522 15.6013ZM13.8522 15.6013L13.8522 15.6013L11.3534 18.7248C13.065 20.0941 15.5599 19.8308 16.948 18.1342L13.8522 15.6013ZM22.2259 5.36679L13.8522 15.6013L16.948 18.1342L25.3217 7.89974L22.2259 5.36679ZM22.3666 6.77399C21.9391 6.42426 21.8761 5.79424 22.2259 5.36679L25.3217 7.89974C26.3709 6.61741 26.1819 4.72734 24.8995 3.67816L22.3666 6.77399ZM23.7738 6.63327C23.424 7.06071 22.794 7.12372 22.3666 6.77399L24.8995 3.67816C23.6172 2.62898 21.7271 2.81798 20.6779 4.10032L23.7738 6.63327ZM15.4001 16.8678L23.7738 6.63327L20.6779 4.10032L12.3043 14.3348L15.4001 16.8678ZM11.8863 16.5898L12.6028 17.163L15.1016 14.0396L14.3851 13.4664L11.8863 16.5898ZM11.5878 13.7616L10.3212 15.3096L13.4171 17.8426L14.6836 16.2946L11.5878 13.7616Z" fill="black" mask="url(#path-2-outside-1_46_410)"/>
</svg>
